<svg id="visual" viewBox="0 0 900 200" width="900" height="200" xmlns="http://www.w3.org/2000/svg" xmlns:xlink="http://www.w3.org/1999/xlink" version="1.1"><path d="M0 157L11.5 157C23 157 46 157 69 159.2C92 161.3 115 165.7 138.2 163.3C161.3 161 184.7 152 207.8 149.5C231 147 254 151 277 155.8C300 160.7 323 166.3 346 162.3C369 158.3 392 144.7 415.2 144.7C438.3 144.7 461.7 158.3 484.8 160.5C508 162.7 531 153.3 554 147.3C577 141.3 600 138.7 623 141.2C646 143.7 669 151.3 692.2 153.3C715.3 155.3 738.7 151.7 761.8 152.5C785 153.3 808 158.7 831 158.3C854 158 877 152 888.5 149L900 146L900 201L888.5 201C877 201 854 201 831 201C808 201 785 201 761.8 201C738.7 201 715.3 201 692.2 201C669 201 646 201 623 201C600 201 577 201 554 201C531 201 508 201 484.8 201C461.7 201 438.3 201 415.2 201C392 201 369 201 346 201C323 201 300 201 277 201C254 201 231 201 207.8 201C184.7 201 161.3 201 138.2 201C115 201 92 201 69 201C46 201 23 201 11.5 201L0 201Z" fill="#050049" stroke-linecap="round" stroke-linejoin="miter"></path></svg>